<?xml version="1.0" encoding="utf-8"?>
<!-- Generator: Adobe Illustrator 16.0.0, SVG Export Plug-In . SVG Version: 6.00 Build 0)  -->
<!DOCTYPE svg PUBLIC "-//W3C//DTD SVG 1.1//EN" "http://www.w3.org/Graphics/SVG/1.1/DTD/svg11.dtd">
<svg version="1.1" id="Layer_1" xmlns="http://www.w3.org/2000/svg" xmlns:xlink="http://www.w3.org/1999/xlink" x="0px" y="0px"
	 width="200px" height="200px" viewBox="0 0 200 200" enable-background="new 0 0 200 200" xml:space="preserve">
<line fill="none" stroke="#F7941E" stroke-width="3" stroke-linecap="round" stroke-miterlimit="10" x1="64.021" y1="122.298" x2="85.755" y2="100.562"/>
<line fill="none" stroke="#F7941E" stroke-width="3" stroke-linecap="round" stroke-miterlimit="10" x1="85.755" y1="100.562" x2="89.908" y2="104.715"/>
<line fill="none" stroke="#F7941E" stroke-width="3" stroke-linecap="round" stroke-miterlimit="10" x1="89.908" y1="104.715" x2="110.271" y2="84.351"/>
<line fill="none" stroke="#F7941E" stroke-width="3" stroke-linecap="round" stroke-miterlimit="10" x1="110.271" y1="84.351" x2="113.787" y2="87.867"/>
<line fill="none" stroke="#F7941E" stroke-width="3" stroke-linecap="round" stroke-miterlimit="10" x1="113.787" y1="87.79" x2="129.222" y2="72.355"/>
<polygon fill="#F7941E" stroke="#F7941E" stroke-miterlimit="10" points="124.928,71.715 131.619,69.923 129.826,76.614 "/>
<path fill="#F7941E" d="M100,1C45.6,1,1.5,45.1,1.5,99.5c0,54.4,44.1,98.5,98.5,98.5s98.5-44.1,98.5-98.5
	C198.5,45.1,154.399,1,100,1z M100,148.25c-26.648,0-48.25-21.603-48.25-48.25c0-26.648,21.602-48.25,48.25-48.25
	c26.647,0,48.25,21.602,48.25,48.25C148.25,126.647,126.647,148.25,100,148.25z"/>
</svg>
